<?xml version="1.0" encoding="UTF-8" standalone="no"?>
<!-- Created with Inkscape (http://www.inkscape.org/) -->

<svg
   xmlns:dc="http://purl.org/dc/elements/1.1/"
   xmlns:cc="http://creativecommons.org/ns#"
   xmlns:rdf="http://www.w3.org/1999/02/22-rdf-syntax-ns#"
   xmlns:svg="http://www.w3.org/2000/svg"
   xmlns="http://www.w3.org/2000/svg"
   xmlns:sodipodi="http://sodipodi.sourceforge.net/DTD/sodipodi-0.dtd"
   xmlns:inkscape="http://www.inkscape.org/namespaces/inkscape"
   width="1000"
   height="1000"
   viewBox="0 0 264.58333 264.58334"
   version="1.1"
   id="svg8"
   inkscape:version="0.92.4 5da689c313, 2019-01-14"
   sodipodi:docname="breeze.svg">
  <defs
     id="defs2">
    <inkscape:path-effect
       effect="bspline"
       id="path-effect46"
       is_visible="true"
       weight="33.333333"
       steps="2"
       helper_size="0"
       apply_no_weight="true"
       apply_with_weight="true"
       only_selected="false" />
    <inkscape:path-effect
       effect="bspline"
       id="path-effect42"
       is_visible="true"
       weight="33.333333"
       steps="2"
       helper_size="0"
       apply_no_weight="true"
       apply_with_weight="true"
       only_selected="false" />
    <inkscape:path-effect
       effect="bspline"
       id="path-effect20"
       is_visible="true"
       weight="33.333333"
       steps="2"
       helper_size="0"
       apply_no_weight="true"
       apply_with_weight="true"
       only_selected="false" />
    <inkscape:path-effect
       effect="bspline"
       id="path-effect16"
       is_visible="true"
       weight="33.333333"
       steps="2"
       helper_size="0"
       apply_no_weight="true"
       apply_with_weight="true"
       only_selected="false" />
    <inkscape:path-effect
       effect="bspline"
       id="path-effect12"
       is_visible="true"
       weight="33.333333"
       steps="2"
       helper_size="0"
       apply_no_weight="true"
       apply_with_weight="true"
       only_selected="false" />
    <inkscape:path-effect
       effect="bspline"
       id="path-effect20-3"
       is_visible="true"
       weight="33.333333"
       steps="2"
       helper_size="0"
       apply_no_weight="true"
       apply_with_weight="true"
       only_selected="false" />
  </defs>
  <sodipodi:namedview
     id="base"
     pagecolor="#ffffff"
     bordercolor="#666666"
     borderopacity="1.0"
     inkscape:pageopacity="0.0"
     inkscape:pageshadow="2"
     inkscape:zoom="0.49497475"
     inkscape:cx="496.19924"
     inkscape:cy="581.5669"
     inkscape:document-units="mm"
     inkscape:current-layer="layer1"
     showgrid="false"
     units="px"
     showguides="false"
     inkscape:window-width="1244"
     inkscape:window-height="995"
     inkscape:window-x="1920"
     inkscape:window-y="0"
     inkscape:window-maximized="1" />
  <metadata
     id="metadata5">
    <rdf:RDF>
      <cc:Work
         rdf:about="">
        <dc:format>image/svg+xml</dc:format>
        <dc:type
           rdf:resource="http://purl.org/dc/dcmitype/StillImage" />
        <dc:title></dc:title>
      </cc:Work>
    </rdf:RDF>
  </metadata>
  <g
     inkscape:label="Layer 1"
     inkscape:groupmode="layer"
     id="layer1"
     transform="translate(0,-32.41665)">
    <path
       style="fill:#00bfff;stroke-width:0.75595242"
       d="m 146.36562,158.60085 c -9.02012,-2.24709 -18.51754,-7.59243 -36.28571,-20.4223 -19.4535,-14.04678 -27.84961,-17.672 -38.93155,-16.8096 -9.739167,0.7579 -20.153807,5.35316 -33.690377,14.86521 -4.094919,2.87747 -7.493074,5.16073 -7.551452,5.07391 -0.554003,-0.8239 2.245646,-41.20191 2.912486,-42.005407 2.219777,-2.67466 20.510536,-15.62793 26.234104,-18.57863 8.498429,-4.38124 14.197091,-5.97645 21.166666,-5.92513 9.817081,0.0723 15.984752,3.25632 34.017863,17.5616 18.15248,14.399977 23.67167,17.965137 32.93354,21.273567 6.74164,2.40818 16.24062,2.24651 24.14086,-0.41088 13.95274,-4.69327 26.7499,-13.427147 50.86106,-34.711947 l 10.15698,-8.96637 -0.4505,10.1003 c -0.24778,5.55516 -0.66368,16.19311 -0.92421,23.639877 l -0.47371,13.53959 -2.29202,1.95744 c -9.03782,7.71844 -25.08237,20.09022 -32.68713,25.20466 -19.84444,13.34605 -35.51664,18.00722 -49.1369,14.61411 z"
       id="path48"
       inkscape:connector-curvature="0" />
    <path
       style="fill:#00bfff;stroke-width:0.75595242"
       d="m 145.71089,250.12319 c -9.02012,-2.24709 -18.51754,-7.59243 -36.28571,-20.4223 -19.453502,-14.04678 -27.849612,-17.672 -38.931552,-16.8096 -9.739168,0.7579 -20.153808,5.35316 -33.690378,14.86521 -4.094919,2.87747 -7.493074,5.16073 -7.551452,5.07391 -0.554003,-0.8239 2.245646,-41.20191 2.912486,-42.00541 2.219777,-2.67466 20.510536,-15.62793 26.234104,-18.57863 8.49843,-4.38124 14.19709,-5.97645 21.16667,-5.92513 9.81708,0.0723 15.98475,3.25632 34.017862,17.5616 18.15248,14.39998 23.67167,17.96514 32.93354,21.27357 6.74164,2.40818 16.24062,2.24651 24.14086,-0.41088 13.95274,-4.69327 26.7499,-13.42715 50.86106,-34.71195 l 10.15698,-8.96637 -0.4505,10.1003 c -0.24778,5.55516 -0.66368,16.19311 -0.92421,23.63988 l -0.47371,13.53959 -2.29202,1.95744 c -9.03782,7.71844 -25.08237,20.09022 -32.68713,25.20466 -19.84444,13.34605 -35.51664,18.00722 -49.1369,14.61411 z"
       id="path48-7"
       inkscape:connector-curvature="0" />
  </g>
</svg>
