<svg xmlns="http://www.w3.org/2000/svg" xmlns:xlink="http://www.w3.org/1999/xlink" viewBox="0 0 4 4">
   <image x="0" y="0.5" width="1.5" height="1.5" xlink:href="explorer.svg" />
   <image x="2.1" y="0.1" width="1.8" height="1.8" xlink:href="wumpus.svg" />
   <image x="2" y="2" width="2" height="2" xlink:href="gold.svg" />
   <image x="0" y="2" width="2" height="2" xlink:href="pit.svg" />
   <image x="0" y="2" width="0.5" height="0.5" xlink:href="breeze.svg" />
   <image x="2" y="2" width="0.5" height="0.5" xlink:href="breeze.svg" />
   <image x="0" y="0" width="0.5" height="0.5" xlink:href="breeze.svg" />
   <image x="1.5" y="0" width="0.5" height="0.5" xlink:href="stench.svg" />
   <image x="3.5" y="0" width="0.5" height="0.5" xlink:href="stench.svg" />
   <image x="3.5" y="2" width="0.5" height="0.5" xlink:href="stench.svg" />
   <line x1="0.05" y1="0.05" x2="3.95" y2="0.05" style="stroke:rgb(64,64,64);stroke-width:0.05" />
   <line x1="0.05" y1="2" x2="3.95" y2="2" style="stroke:rgb(64,64,64);stroke-width:0.05" />
   <line x1="0.05" y1="3.95" x2="3.95" y2="3.95" style="stroke:rgb(64,64,64);stroke-width:0.05" />
   <line x1="0.05" y1="0.05" x2="0.05" y2="3.95" style="stroke:rgb(64,64,64);stroke-width:0.05" />
   <line x1="2" y1="0.05" x2="2" y2="3.95" style="stroke:rgb(64,64,64);stroke-width:0.05" />
   <line x1="3.95" y1="0.05" x2="3.95" y2="3.95" style="stroke:rgb(64,64,64);stroke-width:0.05" />
</svg>