<?xml version="1.0" encoding="UTF-8"?>
<svg viewBox="0 0 382.07993 638.93201" xmlns="http://www.w3.org/2000/svg">
 <g transform="translate(-140.3 -146.66)">
  <path d="m292.84 477.38c-17.458 2.0213-33.181 11.047-48.5 19.062-3.6677 1.8947-5.9718 8.0613-1.5 10.25-2.3082 3.889-0.91312 8.5671-1.7188 12.875-0.18843 2.4072 2.0032 4.5791-0.5625 6.5-1.6303 2.7112-2.2121 6.8839 0.71875 8.9375-3.2842 7.7669-2.2831 16.698-6.5312 24.094-0.92647 2.634-0.0764 6.6573 2.6562 7.3125-2.8786 12.75-1.7765 26.898-2.8709 40.154-1.1194 11.198 0.46985 23.387-3.9416 33.815-3.8027 1.3846-5.4758 6.7005-2.4688 9.6875-4.3203 3.4345 1.9709 8.2345-1.3438 12 1.5563 3.3888-1.5327 4.4906-4.2188 4.4688-6.0567 1.5632-3.028 9.267-4.6498 13.512-1.2618 12.755-4.6326 25.539-5.2564 38.206 0.84394 3.5557 4.777 7.4064 1.1562 10.625-2.0568 4.0651-0.0428 8.8241 1.9375 12.125-4.0215 5.3468-1.5502 12.36-4.625 18.031-1.6291 6.8544-3.0332 15.286 0.9375 21.469 5.5732 5.161 14 4.7076 21.031 5.0938 7.7446-0.52632 16.582-8.0069 12.875-16.312-1.249-5.401-4.9556-10.709-5.5625-15.875 4.2693-6.2486 2.6631-14.257 1.0938-20.906 7.9878-9.4624 6.414-23.366 10.297-34.58 2.1438-9.7157 4.3592-19.765 6.1718-29.295 2.9033-4.7941 5.6907-9.8572 5.2188-15.594 4.6824-3.6116 0.0215-9.9766 3.133-14.318 6.7347-22.238 13.57-45.058 20.242-66.932 5.9192 20.355 8.862 41.834 18.719 60.812-1.9179 2.7261-1.3827 6.7177 0.0312 9.0625-3.4108 3.4397-1.9529 9.1432 2.0938 11.375-3.2691 2.0936-3.5724 6.901-4.8438 9.4688-5.548 2.5789-1.5036 9.806-2.6384 14.406 0.80304 18.778-5.8339 37.168-5.9241 55.688 0.80191 3.1274-3.6876 6.7595-0.71875 9.9062 3.6284 1.7074-1.2735 4.0821-1.4062 6.8438-2.0265 6.4823-1.4639 14.284 1.5312 20.125 10.773 5.8967 22.877-1.3492 34.188 1.25 8.1004 0.43068 17.813 1.8262 24.531-3.625 4.4324-6.5429-1.4368-16.643-9.5312-15.125-7.4718 0.91993-11.232-6.4559-17.188-9.2812 0.50659-2.4604-1.4112-4.5498 1-6.3125 2.5633-4.5848-0.32687-9.9619 2.0983-14.676 4.4975-19.655 9.7142-39.135 14.339-58.761-3.773 1.8781-1.271-3.1852-3.25-4.9688 0.55185-4.3173 6.0214-7.3448 4.2691-12.337-2.3894-25.292-5.4286-50.628-10.582-75.507-0.16686-2.5958-3.6811-8.4426-2.0938-9.1875 4.4412 1.7286 7.74-3.9158 5.0625-7.5-2.6215-8.9753-8.1948-17.422-10.531-26.094 3.1111-3.4997-0.84066-7.6228-1.0938-11.219 5.2641-4.9747 11.771-12.661 7.2188-20.156-1.8216-3.4059-6.3734-3.4756-9.5625-2.8125 1.7976-4.9442-0.50571-10.656-5.7188-12.188-7.3339-3.4415-15.726-3.841-23.719-3.5938z"/>
  <path d="m278.47 296.22c-5.2223 1.4464-9.9319 5.5434-15.531 4.0312-6.1359 1.2041-9.1814 9.262-16.219 7.5938-5.9003-0.0792-10.209 4.4986-11.781 9.8438-1.7116 4.3079-9.0764 8.752-5.5625 13.688 0.6359 2.0031 5.8078 0.84798 4.7188 2.7188-4.8663 1.9771-6.7623 10.368-0.3125 11.125 3.8879-1.2346 0.94843 4.7139 0.84375 6.8125-0.9334 2.2259-1.6841 5.5025 0.71875 7.0938-5.2983 0.58403-10.553 1.5599-14.75 5.1875-3.4207 1.7816-7.3262 0.18823-10.844 2.3125-9.1268 2.5344-18.176 7.4303-27.781 5.9375-7.2778 1.4312-14.015 5.122-20.625 8.3438-3.2026 1.8658-3.5618 6.4759-8.0938 6-5.2857 1.2407-9.4125 5.3677-12.188 9.7812-2.4724 6.7475 1.6578 13.775 3.5312 20.188 1.6937 4.3828 5.0538 9.0195 10.344 7.125 1.8055 0.94602 3.314 0.31898 5.0625 0.40625 4.6539 6.0299 11.713-1.8936 17.375 1.4062 11.662 2.579 23.699 0.8723 35.469 0 5.9551 11.033 10.239 24.657 21.406 31.625 3.1923 2.0763 7.8641 2.2674 10.594 4.1875 2.3354 9.0507 7.0929 19.026 2.25 28.031-0.54142 5.7836-1.7308 11.964 1.3438 17.344 3.7007 10.816 16.199 13.635 23.719 21.125 2.0619-4.5993-1.1982-9.5791-0.40625-13.812 14.233-1.0728 29.049-1.718 42.812-6.0938 4.6022-7.5396 4.9176-16.897 5.3438-25.469-0.77992-3.7353-3.2058-8.16 0.0625-11.406-7.0892-4.1725-3.1439-13.387-4.7812-19.969-0.81129-10.62-1.5443-21.548 1.7812-31.781 1.3872-11.59 8.3999-23.855 3.1562-35.344-1.6367-7.0576-11.855-8.4787-15.938-3.75-3.14-3.4551-6.0487-7.7279-11.156-8.5938 3.4205-1.4381 3.6868-5.3508 3.7812-8.4688 1.5043-3.4118 2.9052-7.1884 2.0312-10.844 5.5021-2.6764 1.9533-9.7919-1.471-12.628-2.6719-2.0138-4.1324-5.6827-2.9978-8.6537 5.1174 2e-3 2.672-6.5184 3.0938-9.5 1.406-2.2068-2.5928-4.2329 0.4375-5.3125 1.9425-2.1015-2.9435-5.1535 1.25-4.4688 3.4256 0.31745 4.9045-4.3602 1.4062-5.5312-7.5397-2.9129-13.627-10.021-22.094-10.281zm-24.406 69.281c1.6947 0.79812 2.438 4.0597 2.1562 4.75-0.63301-1.5987-1.5515-3.2925-2.1562-4.75z"/>
  <path d="m374.16 146.69c-4.5396 1.6745-4.5656 8.2876-7.25 11.844-2.7762 6.028-4.9786 14.279 1.0312 19.156 9.0218 9.4165 19.684 16.993 28.36 26.828 23.042 22.744 44.575 48.284 56.752 78.796 5.1612 11.332 12.679 23.592 8.2326 36.313-1.3628 6.0425-3.8768 12.992-3.25 18.719-5.1666 1.3617-10.85 3.4991-12.857 9.095-3.897 7.0684-13.566 8.6751-20.674 8.0925-5.3891-5.666-13.315 6e-3 -18.969 2.2188-3.8726 1.1174-9.7467 0.51833-10.281 5.75-26.239 6.0635-52.159 15.503-79.094 18.312-14.194 3.1646-25.604 13.354-39.094 18.219-5.7759 2.1439-4.8394 9.0366-3.3348 13.751 2.0755 12.622 4.1359 25.246 6.1786 37.874 21.663-17.167 44.416-33.996 71.5-41.188 16.555-5.1093 34.021-7.3986 51.094-9.4688 4.7919 1.9905 9.2093-2.4911 13.938-2 6.3589-0.93851 15.83-1.9734 16.5-10.156-1.2792-4.3462 5.4246-3.0951 6.875-6.6562 0.72784-2.9455 3.6213 1.4185 5.5938-0.40625 3.0707-1.0861 4.6551-5.8297 8.3125-2.9688 3.4629 1.059 7.3634-0.79068 8.9688-3.4375 2.6021-0.56874 4.6326-0.5317 5.2758 2.5254 5.3116 8.3042 7.9734 18.482 5.0732 28.17-3.2561 28.466-10.525 56.61-24.337 81.843-9.6445 19.799-21.953 38.344-33.262 57.242-2.4366 9.4104 6.6566 16.534 11.656 23.344 2.2647 4.8658 5.4392 2.5497 8.0312-0.4375 4.1933-3.3802 6.7391-10.526 1.6562-14.344-2.1431-3.0042-5.4938-6.1581-8.8438-7 14.05-19.236 27.578-39.534 38.603-60.863 15.546-29.347 20.52-62.749 26.709-95.074 0.11754-4.4792 3.0629-10.052 1.3438-13.875-2.4186-2.8863-7.7527-5.2252-8.0625-8.7188 1.539-1.9882 4.2276-3.921 3.3125-7.0625-1.1752-3.4895 0.5166-7.0041-0.6875-10.656 1.9888-4.7-3.1902-8.1917-3.9062-12.406-1.9047-2.7363-6.4961-2.5379-8.3438-3.625 2.1576-6.7761 6.5191-12.553 10.25-18.5-17.903-37.703-34.847-77.423-65.781-106.44-13.896-13.886-29.156-26.633-43.938-39.344 4.7558-0.50316 4.9666-6.4192 7.25-9.625 2.9639-5.5544-2.0683-10.584-6.7812-12.812-1.1241-0.68092-2.408-1.1777-3.75-1.0312z"/>
  <path d="m473.66 368.41-10.906-24.688-6.6562 2.1562 2.0938 23.938s3.383 1.9983 5.75 1.5c1.3783-0.29017 5.4201-1.5852 9.7188-2.9062z" fill="#d38d5f"/>
  <path d="m417.09 361.7c10.418-3.5923 22.649 0.0696 31.144-11.212 0 0 10.215 4.734 12.209 4.2356l3.0947 3.0552c-4.2413 10.667-41.014 23.887-41.014 23.887z" fill="#6c5d53"/>
  <path d="m374.93 150.77s-7.9306 15.566-6.9728 20.147c0.20783 0.99415 2.3824 4.1804 6.7495 7.9104 20.124 17.189 48.546 46.253 63.883 68.719 11.78 17.255 26.283 51.976 27.455 56.356 2.6856 10.032-4.6151 28.929-4.3781 31.822 0.23046 2.8134 4.1712 13.829 4.3913 14.444-0.0361 0.468-0.9371 12.363-0.41232 15.161 0.53521 2.8529 12.56 19.13 12.618 29.515 0.0254 4.534-4.7872 41.843-11.594 61.596-8.862 25.719-28.61 61.252-43.482 83.144-3.2274 4.7506-4.47 8.4086-4.408 9.4223 0.28577 4.6716 12.019 17.604 12.019 17.604s6.7373-5.7497 4.5153-8.4634-6.2797-6.9851-6.2797-6.9851l-4.0351 0.29078c-2.8014-1.8666-1.175-5.4447-1.175-5.4447s2.5988-4.0407 7.7119-11.089c7.1438-9.8481 29.628-43.45 39.216-67.709 11.067-28.003 20.396-88.019 20.396-88.019s-11.826-9.8206-15.14-16.52c-2.0251-4.0935-2.4019-13.495-2.4019-13.495s-2.1072-9.1611-1.2347-13.644c1.428-7.3369 10.236-19.934 10.236-19.934s-24.846-55.402-42.913-79.49c-15.652-20.867-46.205-47.352-55.695-54.964-6.7926-5.4487-10.373-8.656-10.373-8.656s-2.5024-3.0159-0.29314-5.5559l3.9564-0.78438s2.7763-5.1974 4.203-8.4014-6.5638-6.9734-6.5638-6.9734z" fill="#917c6f"/>
  <path d="m312.51 386.54s28.055-4.6338 31.033-5.2009 61.916-16.878 61.916-16.878l6.3584 29.323s-8.8317 3.0776-20.641 4.6791c-3.2191 0.43652-21.124 2.732-31.369 5.5194-13.842 3.7661-27.604 8.4044-40.319 15.045-13.185 6.8858-36.693 25.396-36.693 25.396l-6.4508-39.162z" fill="#5d6c53"/>
  <path d="m402.78 378.41s-1.4407 12.714-2.5312 14.531-2.2086 1.824-5.8438 2.1875-43.249 6.8865-50.156 7.25-56.719 25.094-56.719 25.094l2.6875 11.281c8.012-6.0261 20.759-15.268 29.281-19.719 12.715-6.6405 26.471-11.296 40.312-15.062 10.244-2.7874 28.156-5.0635 31.375-5.5 8.5087-1.1538 15.397-3.0793 18.625-4.0625l-7.0312-16z" fill="#37483e"/>
  <path d="m469.16 345.91s-2.1989 6.2518-6.1025 7.8416c-2.1181 3.8227-6.0184 10.565-7.3125 10.75-1.7993 0.25705-5.4084 0-8.75 0-3.1472 0-24.537 5.7478-27.094 6.4375l4.1562 13.688s10.957-7.2221 16.688-8.2188 7.6179-2.5 10.719-2.5c4.2356 0 8.7188-3.2188 8.7188-3.2188s3.5017-7.9789 4-10.969 7.7188-5 7.7188-5z" fill="#5e5148"/>
  <path transform="translate(140.3 146.66)" d="m333.34 203-7.6875 2.3438c-0.23588 3.4506-0.72674 11.104-0.3125 13.312 0.53521 2.8529 12.567 19.147 12.625 29.531 5e-3 0.95415-0.25959 3.5807-0.65625 6.9688 1.7476-1.9004 2.8564-10.843 2.6866-12.258-0.38557-3.2131-9.8741-20.301-9.8741-21.586 0-0.7383 4.3233-1.1973 8.0625-1.4688-1.0193-1.3222-1.8767-2.647-2.4688-3.8438-1.8598-3.7593-2.3107-11.68-2.375-13z" fill="#5e5148"/>
  <path d="m404.49 362.28c-3.6316 1.1697-5.9531-1.6084-5.0681 4.3526s3.2521 24.345 4.1142 29.309c0.6028 3.4716 2.682 0.80761 6.1578 0.2291s15.211-2.619 16.932-3.6555 2.964-3.9863 1.893-7.2015-4.5887-19.84-6.7409-26.714c-1.39-4.4396-11.68 1.8737-17.288 3.68z" fill="#7c916f"/>
  <path d="m455.47 365.69-1.75 1.75 1 7.4688 2.9688-0.25-2.2188-8.9688zm-10.969 6.2188-2.5 0.5 1.25 5.5 3-1.5-1.75-4.5zm-11.219 3.5-2.5 1.25 1.5 5.4688 3.75-1.5-2.75-5.2188z" fill="#483e37"/>
  <path d="m476.19 338.85c-3.1677 0.0989-10.221 2.8674-10.221 2.8674s-1.1314 1.8196-1.0033 4.468c0.089 1.8413 2.9672 2.0959 2.9672 2.0959l4.0101 11.284s-0.99196 4.1027 3.769 4.3046l4.4478 0.13206c0.0528 0.26197 1.7672 1.0059 3.0106 1.1967 0.78052-0.15244 0.33955-0.0314 1.2505-0.71782 3.186-2.4004 0.67991-5.1506-0.37068-5.844 0 0 1.4712-2.1898 1.7211-3.1862s-0.99725-3.7195-0.99725-3.7195 0.7832-2.0657 0.90861-3.1868c0.2508-2.2422-2.3723-3.6268-2.3723-3.6268s-0.70766-3.9105-1.1218-4.3758c-0.33154-0.37253-0.71368-0.37783-1.8991-0.94027s-2.3939-0.80485-4.0997-0.75161z" fill="#fca"/>
  <path d="m479.65 344.01s-9.6352 0.89913-10.032 0.89884l-4.6565 0.27781c-0.0222 0.32237-0.0179 0.64556-7.3e-4 1 0.089 1.8413 2.9672 2.0959 2.9672 2.0959-2.3111 2.9705-1.3063 4.2225 1.9965 4.7515 0 0-1.8916 0.30818-1.5966 3.7801 0.10216 1.2024 3.1542 2.7523 3.1542 2.7523s-1.4832 4.488 3.2778 4.6899l4.6583 0.027c0.0534 0.26137 1.4843 1.339 1.3207 1.6031 0.7233-0.2318 1.5813-0.28945 2.4266-0.6864l-1.5611-1.8449s-5.7552-0.10749-7.9371-0.50586-1.1859-2.1666-1.1856-2.5634 3.1917-2.0805 4.2829-2.2781 6.4372 0.37976 6.4372 0.37976l-1.4789-0.86151s-2.1982-0.21725-4.0822-1.1114c-1.2673-0.60145-4.8413-5.1639-4.2458-5.6594s9.6251-0.0866 9.6251-0.0866l-0.40595-0.40655-8.437-0.69374-1.4985-2.0011s-1.0751-1.5114 1.4078-2.1552 7.9382-0.99413 7.9382-0.99413z" fill="#d38d5f"/>
  <path d="m448.35 351.49s0.87205-4.734 3.1144-6.2289 15.198-5.7306 16.693-5.7306 8.1182 10.372 8.8657 11.618 2.4916 4.2356 2.4916 4.2356-6.478 0.74747-7.973-0.24915-4.63-4.6418-4.63-4.6418-2.1691 4.3594-4.7339 5.3568c-4.4848 1.7441-13.828-4.3602-13.828-4.3602z" fill="#fca"/>
  <path d="m213.28 417.27s11.461 26.161 18.936 33.885 32.39 8.2221 32.39 8.2221l-16.195-45.845z" fill="#7c916f"/>
  <path d="m165.78 386.23s-7.0472 3.5236-8.4566 3.8759-4.4045 0.52854-6.1663 1.7618-4.933 4.933-6.3424 5.9901 0.17618 7.9281 1.4094 11.628 4.1806 9.9426 5.4139 9.7664l7.3706-0.41878c0.70472-0.17618 4.4854 0.38989 4.4854 0.38989l8.5332 0.68595 18.627 2.2094 43.245-2.4809c4.225-0.24239 8.1663-7.3331 8.6949-10.328s-12.861-15.328-14.271-15.856-28.189 0.52854-28.189 0.52854z" fill="#5d6c53"/>
  <path d="m260.74 395.25-0.77949-33.323-10.913-18.903 3.8975-22.216 30.205-2.7282c2.1688 5.0919 6.9622 11.536 7.1129 12.959 0.33746 3.1869-0.71184 4.773 0.65005 7.169 1.5083 2.6534 9.3668 9.8072 6.1872 10.871-3.4604 1.1574-3.346 1.4948-3.0015 2.2527l0.93856 2.9951c0.97437 0.87693-1.559 3.118-1.559 3.118s1.4616 2.241 0.58462 2.6308l-1.7539 2.8257s0.7795 4.8718-0.58462 5.2616c-1.6287 0.46535-2.3895 0.40215-4.1898 0.58462-3.9311 0.39844-9.6462 0.0974-9.6462 0.0974l3.9949 19.78 13.154 7.0154-15.59 15.98z" fill="#fca"/>
  <path d="m261.91 355.79-2.8257 1.559s2.0462 5.7488 2.1436 6.7231-1.2667 3.0205-1.2667 3.0205-2.5334-4.3846-2.5334-4.8718 0.19488-2.0462 0.19488-2.0462l-0.58462 2.0462s-4.8718-1.2667-5.8462-1.0718-2.5334 0.19488-2.5334 0.19488l2.7282-2.241s-7.4052-3.4103-8.6719-3.4103h-4.9693s-0.19488-1.3641 0.77949-2.7282 0.87693-5.6513 1.0718-6.918 0.19488-6.3334 0.19488-6.3334-5.1642 1.4616-5.7488 1.4616-0.87693-0.7795 0.19488-1.8513 4.9693-4.1898 4.5795-5.8462-2.8257-4.4821-3.6052-4.4821-4.0923 0.87693-2.241-1.6564 3.9949-4.677 4.5795-6.236 3.9949-8.477 6.0411-8.6719 10.732-0.96049 11.511-2.1297 4.371-2.7883 4.371-3.3729 3.2154-3.0205 4.8718-2.8257 4.2872 0.19488 5.8462 0.0974 7.3078-4.677 10.133-3.9949 14.908 8.0872 14.908 8.0872-3.3128 0.29231-4.1898 0.29231-0.87693 2.4359-0.0974 3.3128 2.241 2.241 2.241 2.241-4.1898 1.2667-3.9949 1.7539 3.8975 3.7026 4.2872 4.1898-0.58462 1.3641-0.58462 1.3641l0.58462 3.118s-1.559-2.5334-2.9231-2.5334-5.359 0.58462-6.5283 0.77949-3.2154 0.0974-3.2154 0.0974 2.0462 2.3385 1.6564 2.5334-1.4616 1.6564-2.8257 1.3641-4.9693 0.29231-6.3334 0.19487-1.559-1.4616-3.5077-1.3641-4.1898 0.38974-4.677 1.6564 0 2.7744 0 2.7744l1.2667 0.97436s-2.5334 0.58462-2.6308 1.6564 3.0205 4.2872 3.0205 4.2872-2.3385 0.58462-2.241 1.1692 1.4616 2.6308 1.9487 2.9231 1.9487 9.4514 1.9487 9.7437 3.0205 5.5539 3.7026 6.1385 0.68206 1.3641 0.68206 1.3641l-8.7693-0.58462s1.559-5.2616 1.0718-5.6513-3.7026-0.97436-3.7026-0.97436 1.8513-0.68206 2.241-1.559-3.118-6.0411-3.118-6.0411-3.4103-1.8513-4.8718-1.6564-4.4821 0.97436-2.9231 4.7744 3.1922 5.8589 5.8035 7.4065c1.5774 0.93484 2.2887 1.8575 3.3555 1.7527z" fill="#502d16"/>
  <path d="m277.89 368.84c-4.6678-0.32483-6.7351-2.21-9.7379-3.5339 2.912 2.4282 4.1833 5.0205 10.461 7.1122z" fill="#d38d5f"/>
  <path d="m278.28 335.81c0.48718-0.29231 6.5283-3.7026 7.1129-3.6052s3.9949 0.48719 3.9949 0.48719 0.97437 3.0205-0.19487 2.7282-2.7653-0.95923-4.1898-0.87693c-2.0507 0.11849-5.359 2.0462-5.8462 1.9487s-1.1692-0.19488-0.87693-0.68206z" fill="#502d16"/>
  <path d="m281.15 341.12s0.14209-0.301-1.3605-0.92053c2.0038 0.68089 9.2174-2.8305 9.2006-3.6323 0 0-0.83284 1.7012-1.5555 2.263-0.51922 0.40363-1.8513 0.68205-1.8513 0.68205v1.6564l2.0462 0.48718s-0.48718 1.2667-0.48718 1.6564 0.48718 2.0462 0.48718 2.0462-1.559-2.8257-2.3385-3.0205-1.0342 0.16365-2.3496-0.37229c-0.36094-0.14705-1.7915-0.84571-1.7915-0.84571z" fill="#d38d5f"/>
  <path d="m281.54 341.12c1.411-0.8973 1.7997-1.5934 4.6282-1.9l0.29231 2.241c-0.88947-0.54265-3.2249-0.25903-4.9206-0.34103z"/>
  <path d="m295.09 354.77s-3.7894 1.6536-4.4784 1.8602-1.9499 0.51487-2.687 0.89568c-1.6717 0.86367-0.74952 1.0528-0.15308 2.8387 0.2067 0.27559 0.34795-1.9208 0.76134-2.1275s5.1645-0.98188 5.1645-0.98188c1.5985-1.2821 1.5455-1.5236 1.3926-2.4852z" fill="#d38d5f"/>
  <path d="m294.26 359.73s-3.6052 0.0974-3.8975 0.19487-1.9975 1.1205-1.6077 1.3641 3.5077 1.8026 3.5077 1.8026z" fill="#ffb380"/>
  <path d="m218.82 418.5s16.536 7.7166 19.843 11.299 14.882 47.402 14.882 50.433-2.7559 11.299-3.0315 12.677 1.6536 3.5827 1.6536 3.5827-1.9292 0.55119-1.9292 1.9292 3.3071 11.299 5.7874 12.677c0.45286 0.25159 2.5594 0.28269 5.7108 0.15033 14.109-0.59258 49.158-4.4615 50.51-6.489 1.6536-2.4803 4.1339-19.843 3.8583-20.669s-2.2047-9.0946-2.2047-9.0946l1.1024-2.7559-2.7559-2.7559s-2.4803-36.929-1.6536-39.685 2.6287-10.952 2.6287-10.952c-0.51409-5.1409-6.487-24.875-6.487-24.875s-17.362 1.6536-19.843 2.2047-3.8583 3.8583-3.8583 3.8583l0.55118 4.6851-4.1339-5.7874-46.3-4.1339z" fill="#5d6c53"/>
  <path d="m145.09 397.62-0.28125 0.21875c-1.4094 1.0571 0.17299 7.9252 1.4062 11.625s4.048 11.114 5.2812 10.938 3.7188-1.0625 3.7188-1.0625 1.9203 1.5824 2.625 1.4062 4.25-1.4062 4.25-1.4062 0.51946 3.5312 2.2812 3.5312 6.5254-1.9375 7.4062-1.9375 17.443 2.4688 18.5 2.4688 38.74-2.8238 42.969-3c2.0386-0.0849 4.1662-1.9827 5.875-4.25-6.6588-1.4975-14.695-1.6174-22.688-1.7812 3.3459 1.1135 8.7305 1.2077 10.031 3.3438 0 0-31.11 3.0695-33.938 2.8125s-20.812-6.6875-20.812-6.6875-4.6281 5.4133-5.6562 5.1562 0.25-4.625 0.25-4.625l-7.9688 3.8438-1.8125-2.5625s-3.5858 3.5977-6.1562 2.3125c-1.6988-0.84942-3.9437-12.479-5.2812-20.344z" fill="#37483e"/>
  <path d="m288.53 396.03-2.4375 1.1875 4.4375 8.5312-14.531 2.7188-0.53125 3.2812 16.531-3.7188 14.625 27.531c2.0683 1.6742 1.0938-2.3951 1.0938-3.7188zm-47.688 18.062c-7.1202 0.0861-12.155 4.606-18.156 6.2812 5.088 2.5067 13.673 6.95 15.969 9.4375 3.3071 3.5827 14.875 47.375 14.875 50.406s-2.7557 11.31-3.0312 12.688 1.6562 3.5938 1.6562 3.5938-1.9062 0.52829-1.9062 1.9062c0 0.33334 0.73632 6.8523 4.8509 12.684l13.125 9.0556-2.851-24.333s-10.199-6.1824-10.562-8 2.9375-11.25 2.9375-11.25l-12.375-41.469 2.5312 0.75-9.4062-12.281s5.7852-1.4429 9.2812 1c6.0377 4.2189 16.385 18.494 17.105 18.355 1.6933-0.32563 2.3013-8.7302 2.3013-8.7302l-18.406-18.438c-2.9472-1.2239-5.5641-1.6849-7.9375-1.6562z" fill="#37483e"/>
  <path d="m210.85 393.3s9.7437 1.7539 16.369 5.6513 20.072 18.708 22.8 22.8 15.005 19.682 15.005 19.682 10.718-19.682 12.082-21.631 1.3641-13.446 0-15.2-14.031-6.8206-19.487-7.9898-13.251-11.498-13.251-11.498-6.0411 5.4565-8.3796 5.8462-6.6257 1.1692-6.6257 1.1692-4.0923-2.7282-5.8462-2.5334-12.667 3.7026-12.667 3.7026z" fill="#7c916f"/>
  <path d="m278.11 413.58s1.9216-10.143-0.22205-13.846-17.32-11.797-17.32-11.797l-0.2777-11.872s-12.997-0.88516-15.336 1.2584-2.9231 7.9898 0.19487 11.108 9.6756 7.0677 15.005 9.7437c5.0143 2.5176 13.836 3.3128 15.785 5.8462s2.1708 9.5584 2.1708 9.5584z" fill="#bec8b7"/>
  <path d="m260.57 387.93s-6.3429-2.4102-7.0476-4.3481 6.8919-2.3073 6.8919-2.3073z" fill="#5d6c53"/>
  <path d="m229.37 392.13s12.082 5.9436 16.857 13.933 5.5539 9.3539 6.1385 10.426 1.4616 1.0718 0.77949-1.6564-7.2103-10.426-7.2103-10.426-10.718-9.4514-12.374-11.205-1.5903-1.5395-1.5903-1.5395z" fill="#5d6c53"/>
  <path d="m285.58 390.45s4.8209 12.828 5.3721 13.792 16.604 30.108 16.604 30.108 9.9213-31.418 10.473-37.894-2.3425-12.402-2.7559-13.091-3.8583-2.0669-5.2363-1.7914-3.3071 3.0315-3.7205 3.4449-2.4803 0.96457-2.4803 0.96457-1.378-2.0669-2.8937-3.0315-18.725-3.6969-18.725-3.6969z" fill="#7c916f"/>
  <path d="m279.18 375.26 2.6998 13.368s9.417 13.34 9.0036 14.718 6.3386-2.2047 7.3032-4.8229 4.1339-16.26-0.96458-20.118-13.219-4.1093-18.042-3.1447z" fill="#bec8b7"/>
  <path d="m306.3125,385c-.41338.41339-2.46875.96875-2.46875.96875s-.0844-.0978-.125-.15625c.83158,1.80087 1.74386,3.75593 2.25,4.90625 .75788,1.72246.62426,4.97636.96875,7.25s2.61786-3.58513 3.03125-4.6875c-.10345-3.32276-1.5885-6.05647-3.65625-8.28125z" fill="#5d6c53"/>
  <path d="m290.89 436.7-6.2289-31.892-1.2458 0.24916z" fill="#37483e"/>
  <path d="m272.78 405.8s-0.49831 3.7373 0 4.8585 2.4916 1.3704 2.4916 1.3704 1.3704-1.7441 2.4916-1.8687 17.69-3.9865 18.562-3.9865 0.24915-3.1144-0.37373-3.1144-3.1144 0.74746-3.1144 0.74746-16.32 2.6161-16.818 2.4916-3.239-0.49831-3.239-0.49831z" fill="#784421"/>
  <path d="m281.77 417.48 0.59071 3.0445 8.0429-1.3178s0.18176-1.0906-0.18176-1.0906-8.4518-0.63616-8.4518-0.63616z" fill="#37483e"/>
  <path d="m281.79 417.14 0.87205 2.9899 8.2221-1.2458s0.12458-2.9899-0.37373-2.9899-8.7204 1.2458-8.7204 1.2458z" fill="#784421"/>
  <path d="m283.86 426.47 0.86336 3.5898 6.6342-1.136-0.13632-2.681z" fill="#37483e"/>
  <path d="m284.16 426.11 0.87204 3.6128 7.1009-1.2458-0.12457-2.7407z" fill="#784421"/>
  <path d="m288.68 443.47c0.60463 0.83671 1.7722 1.6813 3.0445 1.3632s2.272-1.3178 2.272-1.3178l-3.2717-8.9971s-4.9075 0.72704-5.68 1.5904c0 0 1.6482 4.6117 3.6352 7.3613z" fill="#37483e"/>
  <path d="m285.03 435.95c0.78447-1.2927 10.261-2.8595 10.091-1.4949 0 0-0.62288 8.0975-0.62288 8.845s-4.1111 2.1178-5.2323 0.62289-4.2356-7.973-4.2356-7.973z" fill="#784421"/>
  <path d="m178.91 402.44c0.52854 0 17.618-4.1402 17.618-4.1402l0.79281 9.9541-4.1402 7.3114-8.5447 0.96899z" fill="#37483e"/>
  <path d="m216.03 379.75-38.156 13.906c1.5213 4.7772 1.5625 12.531 1.5625 12.531 9.2187-1.7441 23.902-10.029 27.219-12.031 2.5285-1.5261 14.906-7.5625 14.906-7.5625 1.0709-1.0962 0.90625-2.375 0.90625-2.375s-2.5871 1.2387-4.5625-0.0625c-1.0098-0.6652-1.5398-2.4667-1.875-4.4062z" fill="#5e5148"/>
  <path d="m216.03 368.94c-0.27111 0.0199-0.54645 0.0589-0.84375 0.125-1.3054 0.29008-4.2471 1.5006-6.4062 2.1875-5.95 1.8928-11.916 3.7485-17.969 5.2812-3.5507 0.89913-10.75 2.3125-10.75 2.3125-1.4481 7.8021-3.2673 9.1503-1.9062 16.438l35.912-14.143 0.99081 2.455c0.60388 0.80517 3.2849 1.2822 3.2849 1.2822l-2.75-4.2812 0.71875-0.28125c-0.5021-2.9052-0.73509-6.7679-0.3125-7.7188 0.70472-1.5856 3.1562-2.9375 3.1562-2.9375s-1.2272-0.85802-3.125-0.71875z" fill="#6c5d53"/>
  <path d="m177.52 391.39 36.022-14.177 2.1267 0.31026 0.0509 0.63894-2.3117-0.26883-35.888 13.713z" fill="#483e37"/>
  <path d="m209.56 376.72c-0.70383 3.2581 0.35001 5.0157 1 6.4688l1.4688-0.71875c-0.70843-0.9016-1.2148-3.2041-1.2188-5.75h-1.25zm-11.375 3.5312-1.5625 0.6875c0.30149 3.5345 0.99578 6.4649 2.4688 8.125l1.9375-1.5938c-1.1945-1.8981-2.7534-3.1124-2.8438-7.2188zm-11.188 3.4375-1.5625 0.34375c0.22102 4.2085 1.4037 6.7807 2.7188 9.1562l1.8438-0.96875c-1.4928-2.1065-2.8918-4.3478-3-8.5312z" fill="#483e37"/>
  <path d="m186.57 377.6s-1.2333-1.2333-2.8189-1.2333-6.871 1.7618-8.9851 2.6427-9.866 4.5807-11.452 5.2854-3.5236 6.6948-2.995 10.747 9.6898 21.494 11.099 21.846 17.442 2.995 19.204 2.2903 7.7519-7.0472 8.2804-10.395-0.88767-9.8798-0.88767-9.8798l-2.7022 1.2766s1.8281 9.4841-1.3432 11.951-5.6457 4.1715-8.3685-1.5856c-2.8789-6.087-9.0945-19.505-5.4616-28.453 0.98365-2.4227 6.4305-4.4926 6.4305-4.4926z" fill="#7c916f"/>
  <path d="m280.11 379.7s4.334-1.0975 10.057 1.4176 1.5856 18.675 1.5856 18.675-3.6305-6.6609-4.3352-7.3656-5.5333-3.8053-5.5333-3.8053z" fill="#5d6c53"/>
  <path d="m255.53125,344.125c-.5219.0356-.93636.24201-1.03125.90625-.18979,1.32847.84375,4 .84375,4s-.16766-1.90739.78125-1.8125 1.50456-.46646 1.125-.65625-2.38413-1.34147-1.625-1.53125 4.9375,1.4375 4.9375,1.4375-2.17381-2.09261-3.3125-2.1875c-.56935-.0475-1.19685-.19184-1.71875-.15625zm4.25,3.1875c-.63349.16646-1.35082,2.74522-2.0625,2.65625-.75913-.0949-1.5.5-1.5.5s-.0103.73745.84375,1.78125 4.83805,1.62272 5.3125,1.8125-.67952-1.4375-1.34375-1.4375-1.03467-2.08576-.75-2.75 .75-2.28125.75-2.28125-.46076-.0915-1.125-.28125c-.0415-.0119-.0828-.0111-.125,0z" fill="#d38d5f"/>
  <path transform="translate(140.3 97.982)" d="m231.86 69.67-123.9 204.87h2.0564l173.25 176.08 0.25705 1.7993-174.79-177.11 123.77-204.22z" fill="#f4eed7"/>
  <path d="m255.11 371.25s-2.2903-1.938-2.4665-3.1712 1.3343-2.117 3.2593-2.5546c5.7337-1.3034 19.644 1e-5 19.644 1e-5l5.9901 2.0261z" fill="#782121"/>
  <path d="m254.96 372.22s-1.5946 2.5414-1.3884 3.77 1.9136 1.6125 3.8806 1.4456c5.8589-0.49723 18.718-5.9586 18.718-5.9586l5.0933-3.7476z" fill="#782121"/>
  <path transform="matrix(.98911,-.14716,.14716,.98911,0,0)" d="m189.65 403.76h249.12v2.4128h-249.12z" fill="#483e37"/>
  <path d="m490.31 334.43 0.52853 4.0521 6.6948-0.88089 3.5236 2.8189 21.318-8.4566-22.903-2.6427-3.1712 4.0521z" fill="#b3b3b3"/>
  <path d="m499.78 329.34c0.16144 1.1323 0.52153 2.4915 1.2812 3.1562 0.91912 0.80423 12.424 0.25733 20.562-0.21875l0.75-0.3125-22.594-2.625z" fill="#e6e6e6"/>
  <path d="m215.02 380.64c0.77638 1.9457 0.74747 4.4848 3.9865 4.4848s6.4157-2.4916 7.1632-3.1144c-0.74746 1.9932 1.0589 7.7238 3.7996 6.8518 0 0 6.1135-0.6858 8.9696-1.7441 3.2263-1.1954 6.8221-4.3759 7.8172-5.5126 1.4709-1.6799-0.46717-4.6405-0.46717-4.6405s2.8653-0.80975 5.1077-1.5572 1.4949-2.9899 0.4983-4.9831-2.2424-5.2322-3.239-6.9763-4.2356-2.4916-5.4814-1.9932-9.4679 2.2424-9.4679 2.2424-3.239-0.24916-5.4814 0.74746-12.956 7.7238-12.956 7.7238-1.3658 5.6727-0.24916 8.4713z" fill="#fca"/>
  <path d="m229.15625,375.21875c0,0 .18623,2.43898-.1875,2.875s-4.78632,3.78378-6.28125,4.53125-6.21875,1.3125-6.21875,1.3125l.0312.28125c.68593.51409 1.5138.90625 2.5.90625 3.00351,0 5.86592-2.09805 6.875-2.90625l.0312-.0312 .25-.1875c-.0166.0444-.0171.1083-.0312.15625 .48443-.0695 2.07794-.25969 2.34375.21875 .31144.5606.5625,2.375.5625,2.375s1.25253-2.62563 2-2.8125 3.0625,1 3.0625,1-.56419-.43919-1.0625-.9375-3.875-6.78125-3.875-6.78125z" fill="#d38d5f"/>
  <path transform="translate(-2.2233e-6 9.3523e-7)" d="m285.97199,339.98193c0,.22235-.13519.40259-.30195.40259s-.30194-.18024-.30194-.40259 .13519-.40258.30194-.40258 .30195.18024.30195.40258z" fill="#fff"/>
  <path d="m295.7 349.11s-2.0129-0.46968-2.4826-0.13419-0.40259 1.1407-0.73808 1.2078-1.7446-0.20129-1.7446-0.20129l1.342 0.73808s1.2078-0.80518 1.8788-1.0065 1.7446-0.60389 1.7446-0.60389z" fill="#c87137"/>
  <path d="m245.96 543.75s-2.699 20.654-3.8377 26.727-3.7075 59.948-4.0871 62.605l-1.5182 8.73-0.37957 7.2117-2.1202 5.0876-5.5362 24.361 21.654-2.6339s7.9708-15.942 8.73-18.219-0.37956-5.3139-0.37956-5.3139l2.9214-3.6805c0.93937-0.93937-1.0236-3.9108-1.0236-3.9108l25.051-83.125h2.2774s16.705 53.63 18.223 57.425 4.8653 11.272 4.8653 11.272l-0.82425 6.9242 3.0135 2.1892-1.0736 3.4161s-4.8883 1.8978-2.6109 4.9343 5.8046 4.2634 5.8046 4.2634-1.2268 6.8361-4.2634 8.3544-3.0174 9.0174-3.0174 9.0174l23.913 3.4161s4.9343-6.4526 4.9343-9.4891-1.5183-5.3139-1.1387-7.2117 4.9343-5.3139 4.5548-10.248-6.4526-55.796-9.4891-69.84-12.526-37.577-12.526-37.577z" fill="#483e37"/>
  <path d="m318.06 538.44-72.094 5.3125s-4.1738 20.114-5.3125 26.188-3.0579 60.343-3.4375 63-2.2812 6.8438-2.2812 6.8438l0.78125 1.9062s-5.3125 3.013-5.3125 4.5312 4.9375 2.6562 4.9375 2.6562l-4.9375 5.3125 2.2812 1.5312-5.5625 21.156 6.3125 0.46875 4.5625-21.25 6.8125-2.6562h-7.5938c-4.4707 0-1.2606-2.0173 0.375-3.7812l7.5938-1.1562-8.7188-1.9062 1.9062-2.6562 3.4062-1.875-2.6562-1.5312s5.3034-64.146 6.0625-67.562 3.0625-10.625 3.0625-10.625 0.35218 5.3125 2.25 5.3125 30-4.1875 30-4.1875c-2.4693 10.382-10.559 19.515-15.938 29.25 6.2167-9.5394 13.019-16.737 18.594-28.844l1.6562-0.15625 0.625-2.125h2.2812l1.125 4.1875c5.7065 17.563 8.5767 36.123 14.812 53.5 1.5182 3.7956 6.0625 13.281 6.0625 13.281l-1.9062 5.3125c1.6104 2.2813 3.4375 1.5312 3.4375 1.5312v3.4062s-5.7149 1.901-3.4375 4.9375 6.0938 4.9375 6.0938 4.9375-5.0493 3.7012-6.1453 6.4651c-1.256 3.1676 0.0515 10.222 0.0515 10.222l6.4688 0.9375c0.0186-3.7952 0.12135-14.461 0.75-15.719 0.75913-1.5183 4.5625-5.3438 4.5625-5.3438s-8.6948 1.9064-9.5-2.6562l3.0312-4.5312 5.7188-3.8125s-5.2463 0.065-7.5938-1.5c-1.3445-0.89636 1.125-7.2188 1.125-7.2188l-16.193-54.609 14.772 16.103c-8.168-8.389-14.11-18.559-18.704-29.807 3.8999 4.394 8.7531 5.9282 13.312 8.3438-2.7976-2.9591-10.902-6.3427-10.518-8.3474 13.035-2.4569 22.377-2.3575 30.8-1.6213-3.6748-10.968-7.7812-21.156-7.7812-21.156z" fill="#241f1c"/>
  <path d="m249.68 527.3-4.0098 22.519c0.99662-0.74747 2.9899-1.4949 2.9899-1.4949s0.99662 13.953 3.7373 14.451 35.878-5.4814 39.616-5.7306 32.141-2.4916 35.131-1.9932 5.4814 2.9899 5.9797 1.9932-9.717-24.417-10.714-25.912-3.4882-12.209-3.4882-12.209l-53.319 1.4949z" fill="#5d6c53"/>
  <path d="m254.81 525.44c6.6142-0.82678 47.262-5.1999 51.671-5.1999l16.517 4.0844s-1.6536-4.6851-2.2047-6.8898-4.4095-15.433-3.5827-19.567 1.6536-7.9922 1.6536-9.6457-4.6851-4.1339-4.6851-4.1339-11.299-4.1339-23.977-2.4803-40.512 15.984-43.268 17.914z" fill="#502d16"/>
  <path d="m306.81 519.25-41.219 1.1562-17.438 7s-4.4713 13.446-5.2188 15.938-0.75 7.9688-0.75 7.9688-4.7466 10.97-3.75 11.219 3 0.25 3 0.25 3.2221-12.221 4.2188-12.969c0.37056-0.27792 0.88257-0.54175 1.375-0.78125 0.25551-1.5866 0.48312-2.777 0.625-2.8125 0.75913-0.18978 3.7927-1.529 2.8438-1.7188s-3.0312-0.375-3.0312-0.375 2.6761-12.52 3.625-13.469 31.312-5.125 31.312-5.125 3.2302 1.1494 5.5075 0.95962l17.74-2.1113c1.6131-0.47445 2.2698-3.3045 2.2698-3.3045z" fill="#37483e"/>
  <path d="m257.9 497.24-8.7167 3.231 1.5938-3.0938c-1.8633 0.99304-3.3515 1.8117-3.8438 2.1562-2.7559 1.9292-2.75 3.3125-2.75 3.3125s5.7756 3.011 5.5 6.5938-2.4744 12.96-2.75 14.062-3.7946 5.5485-3.875 6.875c-0.1342 2.2142 3.3125 2.2188 3.3125 2.2188 1.0065-1.8116 0.53471-3.7265 6.3438-4.6875 6.5763-1.0879 48.778-6.3438 53.188-6.3438s13.964 2.1239 13.964 2.1239l0.85402 2.5636 2.27-1.9231c-0.28467-2.0876-3.7757-2.0144-3.7757-2.0144l-1.5312-4.375-7.2188-3.2188-44.787 1.8757s-2.2737-15.749-3.4124-17.078-4.3652-2.279-4.3652-2.279z" fill="#3b2210"/>
  <path d="m246.1 508.34 2.0331 10.057c8.0748-4.6701 49.274-4.1959 58.322-2.6156 0 0 9.3702 0.82677 12.126 0s10.748-11.024 10.748-12.402 0-6.6142-3.0315-6.6142-12.126 3.0315-13.78 3.0315-7.7166-1.1024-7.7166-1.1024c-1.8733-2.919-9.5174-2.7834-14.606-0.82678 0 0-11.437 1.1024-21.91 3.0315s-22.185 7.441-22.185 7.441z" fill="#a05a2c"/>
  <path d="m260.28 502.91c-7.6581 2.3591-14.188 5.4375-14.188 5.4375l-1.0938 12.531 2.2858 1.17s0.32995-1.5349 1.1351-2.1388c3.2486-3.2486 38.991-5.3356 43.423-4.5312 6.547 1.7271 14.625 0.40625 14.625 0.40625s9.3691 0.82677 12.125 0c2.4515-0.73544 9.0104-8.8635 10.438-11.625-0.39803-0.0666-0.76828-0.125-1.0625-0.125-1.8787 0-3.7059 8.8522-12.875 10.75-2.1026 0.43519-12.877-1.6122-14.219-1.3438s-9.125 0.25-9.125 0.25-8.3272-0.26839-9.9375 0-23.094 2.1562-23.094 2.1562z" fill="#784421"/>
  <path d="m298.28 492.88c-3.652 5e-3 -8.0856 0.33868-11.125 1.8262-1.4982 0.73319-3.419 2.2872-3.2812 3.5654s1.5056 14.949 1.7812 15.972 1.2313 4.4863 4.125 4.8698c1.8554 0.24587 17.104 0.51789 18.344-0.37683s3.8324-4.5929 3.2812-6.638-2.5994-13.301-2.875-15.218-3.311-3.7594-4.9688-3.8263c-1.1885-0.0479-3.0901-0.1769-5.2812-0.17392zm-0.15625 3.4204c1.6232-2e-3 3.0258 0.0804 3.9062 0.11595 1.228 0.0495 3.4834 1.4205 3.6875 2.8407s1.7167 9.7609 2.125 11.276-1.5188 4.265-2.4375 4.9278-12.188 0.472-13.562 0.28987c-2.1436-0.28405-2.8584-2.8369-3.0625-3.5944s-1.2417-10.909-1.3438-11.856 1.359-2.0947 2.4688-2.6378c2.2515-1.1019 5.5135-1.3587 8.2188-1.3624z" fill="#c8ab37"/>
  <path d="m285.38 500.35c-1.6782 0.19368-0.61871 2.3637 0.1378 2.2047 2.6959-0.56638 4.4339-0.30277 5.6496 0.41338 1.1422 0.67283 1.0663-2.0715 0.13779-2.4803-1.4921-0.65696-3.7119-0.39323-5.9252-0.13779z" fill="#a0892c"/>
  <path d="m286.62 508.82c-1.0739 0.25843-0.98131 2.5 0.0689 2.4114 1.8222-0.15363 3.6357-0.28976 5.0985 0.27559 1.0994 0.42491 1.7176-2.221 0.1378-2.5492-1.5022-0.31215-2.9158-0.71282-5.3052-0.1378z" fill="#a0892c"/>
  <path d="m223.18 670.14 29.986 2.657s-10.248 46.307-10.248 48.205-3.0365 7.9708-4.9343 9.8687 0.37957 5.6935 0.37957 5.6935 1.1387 8.3504 0.75912 9.8687-3.6659 7.2154-3.6659 7.2154 2.2556 4.6438 3.0373 7.2114 6.1593 12.489 3.5652 15.58-7.8719 6.2124-13.414 5.1502-14.152-1.0185-14.723-5.7856c-0.6548-5.4679-0.28979-15.511 3.3399-21.834 0.43198-4.2267-2.2162-5.8847 4.0208-13.61 0 0-2.4672-1.708-3.9854-5.1241s2.0876-7.7811 2.4672-9.2993-4.5548-7.9708-3.0365-12.526 6.4526-43.27 6.4526-43.27z" fill="#784421"/>
  <path d="m303.84 666.54c7.7811 0.75913 33.781 0.94891 33.781 0.94891s-13.095 53.519-14.234 57.884 1.3285 7.0219-0.37957 8.9198-3.6059 3.2263-3.6059 3.2263l0.37957 2.2774s1.5182 0 1.708 0.94891-0.56935 3.7956-0.56935 3.7956l0.56935 2.8467s1.3285-1.708 2.6569-0.94891 10.628 8.9198 13.095 9.1095 9.2993 0.18978 11.007 2.0876 1.3285 6.2628 0.75913 7.0219-2.657 1.8978-11.007 2.4672-15.942-1.1387-18.219-1.1387-10.818 2.0876-14.613 1.8978-7.9708-0.75913-8.9198-1.1387-2.2774-12.336-0.75913-15.942 3.4161-5.1241 4.1752-6.073-0.75913-3.4161-2.4672-3.9854-0.37956-3.9854 0.75913-5.1241-0.56935-4.365-0.37957-5.5037 4.365-31.124 5.5037-36.248 0.75913-27.329 0.75913-27.329z" fill="#784421"/>
  <path d="m236.32 724.79s2.9523-2.4155 0.40259-2.8181-8.9911 0.80518-9.9305 1.342-5.502 5.6362-3.6233 6.4414 5.502 1.342 5.502 1.342-2.0129-1.342-2.2813-2.2813 6.9782-4.4285 8.0518-4.5627 1.8787 0.53679 1.8787 0.53679z" fill="#502d16"/>
  <path d="m223.19 670.16s-4.9505 38.695-6.4688 43.25 3.4421 11.013 3.0625 12.531c-0.11248 0.44993-0.53817 1.1801-1 2.0312 0.11503-0.0804 0.25511-0.15215 0.375-0.21875 2.4155-1.342 3.4798-6.1856 2.4062-7.125s-3.3658-4.3014-3.5-5.375c-0.12961-1.0368 7.4916-41.947 8.0312-44.844zm-6.125 64.406c0.0578 0.23007 0.15087 0.46447 0.25 0.6875 1.5182 3.4161 3.9688 5.125 3.9688 5.125-0.46824 0.57995-0.86031 1.0907-1.2188 1.5938 1.9152-1.1021 4.4365-2.5413 5.25-2.8125 1.2078-0.40259 1.4743-1.7445 0.9375-2.2812-0.49205-0.49205-7.0604-1.4352-9.1875-2.3125zm13.219 8.7812c-1.5097 0-3.2077 0.0846-4.2812 0.21875-2.1471 0.26839-7.272 3.9081-7.4062 2.9688-0.0516-0.361-0.16408-0.98636-0.28125-1.5625-1.5328 3.5923-0.72195 5.8223-1.0459 8.9924-3.6297 6.3235-4.0089 16.365-3.3541 21.833 0.57089 4.7671 9.2041 4.7178 14.746 5.7799 3.2156 0.61631 6.3358-0.15909 8.9009-1.5367-1.9914-0.50804-4.4836-1.1678-5.0741-1.5226-0.89838-0.53984-14.331-0.37529-15.73-1.5166s-1.1595-4.0392-1.1519-6.6205 5.4132-18.475 6.0841-18.878-1.6103-1.0882-2.2812-1.625 2.1636-2.1415 2.9688-2.8125 8.8455-1.8842 10.188-1.75 1.3493-1.057 0.8125-1.5938c-0.26839-0.26839-1.584-0.375-3.0938-0.375z" fill="#502d16"/>
  <path d="m303.84 666.53s0.38869 22.22-0.75 27.344-5.3102 35.111-5.5 36.25 1.5137 4.3613 0.375 5.5-2.4893 4.5556-0.78125 5.125c1.6875 0.56251 3.1962 2.9644 2.5 3.9375 2.3812-2.0534 6.3601-4.9539 6.9375-5.5312 0.80517-0.80518 7.0018-2.8125 8.3438-2.8125s0.93937-1.8768 0-3.2188-4.5789-0.29598-7.5312 0.375-7.2353 7.3842-7.9062 7.25-2.0092-1.8547-1.875-3.0625 5.3639-6.329 6.4375-7 1.057-2.2721-0.6875-2.4062-2.2812-1.6084-2.2812-3.2188c0-1.5715 11.139-55.405 11.688-58.062-3.6917-0.12683-6.9533-0.27212-8.9688-0.46875zm16.062 70.594c-1.0955 0.45444-2.2003 0.93379-2.6562 1.2188-1.0736 0.67098-6.1912 3.0863-6.5938 4.5625s1.0827 2.1434 2.1562 1.875 4.4172-3.3419 5.625-4.2812c0.38025-0.29576 0.73349-0.53728 1.3125-0.96875l-0.34375-2.0312 0.5-0.375zm1.4062 5.6562c-0.75382 0.49136-1.6258 1.0553-2.3438 1.5938-1.6104 1.2078-5.8915 3.2315-6.5625 5.7812s0.65804 2.9522 2 2.2812c1.0441-0.52206 4.9891-3.6929 7.0312-5.3438l-0.53125-2.5625s0.2321-0.83158 0.40625-1.75zm-23.406 3.9688c-0.76691 0.95275-1.6366 2.2347-2.4062 4.0625-1.5182 3.6059-0.19891 15.558 0.75 15.938s5.1106 0.93522 8.9062 1.125 12.348-1.9062 14.625-1.9062 9.8683 1.7256 18.219 1.1562 10.431-1.7096 11-2.4688c0.13938-0.18584 0.28621-0.59605 0.375-1.125-4.0293 1.5291-18.1 2.4368-20.469 2.1875-2.5497-0.26839-8.3051-3.3566-9.7812-3.625s-6.4595 3.2224-8.875 3.625-10.987 0.28133-13-2-0.26661-12.224 1.3438-13.969 5.2205-0.54044 6.5625-0.40625 0.6875 1.3438 0.6875 1.3438 3.0772-2.0073 2.4062-2.8125-3.3584-0.2592-4.9688-0.125c-1.5097 0.12581-5.2438 9e-3 -5.375-1z" fill="#502d16"/>
 </g>
</svg>
