<?xml version="1.0" encoding="UTF-8"?>
<svg version="1.1" viewBox="0 0 399.7 382.2" xmlns="http://www.w3.org/2000/svg">
 <path d="m130.6 254.2c-3.3 9.1 10.1 87.7-56.98 92.7-34.2 4.9-71.8 0-71.1 32.2 200.38 8.7 194.28-60.2 187.58-69.4" fill="#afd66a" stroke="#000" stroke-linecap="round" stroke-linejoin="round" stroke-width="4.9986"/>
 <path d="m190.2 312.3c-43.4 1.1-77 49.6-179.98 49.1-5.164 4.2-8.141 10.4-7.939 19.7 197.12 8.6 194.52-57.9 187.92-68.8z" opacity=".1"/>
 <path d="m269.1 254.2c3.4 9.1-10 87.7 57 92.7 34.3 4.9 71.9 0 71.1 32.2-200.3 8.7-194.2-60.2-187.9-69.4" fill="#afd66a" stroke="#000" stroke-linecap="round" stroke-linejoin="round" stroke-width="4.9986"/>
 <path d="m210.3 312.3c43.4 1.1 77 49.6 180 49.1 5.2 4.2 8.2 10.4 8 19.7-197.2 8.6-194.6-57.9-188-68.8z" opacity=".1"/>
 <path d="m323.1 255c0 67.2-57.7 123.2-129.6 123.2-71.8 0-129.58-56-129.58-123.2 0-69.3 57.78-124.4 129.58-124.4 71.9 0 129.6 55.1 129.6 124.4z" fill="#c1f08b" stroke="#000" stroke-linecap="round" stroke-linejoin="round" stroke-width="4.9999"/>
 <g fill="#c1f08b" fill-rule="evenodd" stroke="#000" stroke-linecap="round" stroke-linejoin="round" stroke-width="4.9998">
  <path d="m115.3 161c5.7-22-6.6-69.68-6.6-69.68l25.2-7.02s8 36.3 22.7 54.6"/>
  <path d="m273.5 160.6c-6.6-22 4.4-70.02 4.4-70.02l-24.6-6.28s-8.2 38.4-22.3 57.1"/>
 </g>
 <path d="m314.3 220.7c0.2 2 0.2 3.9 0.2 5.6 0 66.3-57.9 119.9-129.3 119.9-55.6 0-103.08-32.8-121.38-78.6 3.2 63.4 59.78 114.6 129.08 114.6 71.4 0 129.3-53.9 129.3-120.2 0-14.4-2.8-28.4-7.9-41.3z" opacity=".1"/>
 <g fill="#c1f08b" stroke="#000" stroke-linecap="round" stroke-linejoin="round" stroke-width="5.0011">
  <path d="m157.6 333.2c-1.1 0.5 3.8 1.8-4.7 15.2-10.1 15.9-1.1 25.9 13.2 25 19.7-1.6 24.2-22.5 21.8-30.9"/>
  <path d="m94.7 312.6c1.4 2.1-0.6 7.9-6.25 17.8-9.27 15.7-1.16 25.8 13.15 24.9 19.8-1.7 23.5-16.4 19.5-22.2"/>
  <path d="m242.2 331.7c1.1 0.6-3.7 1.8 4.7 15.2 10.2 16 1.1 25.9-13.2 25.1-19.9-1.7-24.3-22.5-21.8-30.9"/>
  <path d="m299.2 309.2c-1.3 2.1-1.3 8 4.4 17.9 9.3 15.7 1.2 25.7-13.2 24.9-19.8-1.7-23.5-18.6-19.5-24.3"/>
 </g>
 <g transform="matrix(3.969,0,0,3.591,-960.2,-11.31)" fill="#61323a" opacity=".4015">
  <path d="m269.8 71.43a4.307 6.802 13.76 0 1 -8.3 -2.05 4.307 6.802 13.76 1 1 8.3 2.05z"/>
  <path d="m293.3 81.13a7.82 8.276 0 0 1 -15.6 0 7.82 8.276 0 1 1 15.6 0z"/>
  <path d="m318.1 66.82a4.794 2.739 71.58 0 1 -5.2 1.72 4.794 2.739 71.58 1 1 5.2 -1.72z"/>
  <path d="m306.5 83.71a3.853 4.762 0 0 1 -7.7 0 3.853 4.762 0 1 1 7.7 0z"/>
  <path d="m305.3 64.28a6.12 6.802 0 0 1 -12.2 0 6.12 6.802 0 1 1 12.2 0z"/>
  <path d="m273.1 78.93a4.38 2.546 60.07 0 1 -4.4 2.54 4.38 2.546 60.07 1 1 4.4 -2.54z"/>
 </g>
 <path d="m211.1 57.99c0 30.9 25 55.81 55.9 55.81s55.5-24.91 55.5-55.81c0-30.6-24.6-55.5-55.5-55.5s-55.9 24.9-55.9 55.5z" fill="#c1f08b" stroke="#000" stroke-linecap="round" stroke-linejoin="round" stroke-width="4.9998"/>
 <g transform="matrix(1.101,0,0,1.101,-29.28,-722.4)">
  <path d="m294 701.1c0 17.6-14.3 32-31.9 32s-31.9-14.4-31.9-32 14.3-32 31.9-32 31.9 14.4 31.9 32z" fill="#fff" stroke="#000" stroke-linecap="round" stroke-linejoin="round" stroke-width="4.5395"/>
  <path d="m250.3 703c0 5.1 4.1 9.1 9.1 9.1s9.1-4 9.1-9.1c0-5-4.1-9.1-9.1-9.1s-9.1 4.1-9.1 9.1z"/>
 </g>
 <g fill="#c1f08b">
  <g transform="matrix(1.039,0,0,1.039,-445.2,-3.525)" fill="#c1f08b">
   <g transform="translate(-140,-13.91)">
    <path d="m821 80.69c-7.3 0.01-14.8-0.03-21.9 2.04-4.6 1.07-9.1 2.31-13.4 4.08 10.3 14.69 31.7 21.19 48 12.86 6.6-3.37 12.4-8.53 16-15.05-3.1-0.88-6.6-1.91-10-2.48-6.1-1.49-12.4-1.5-18.7-1.45z"/>
    <path d="m788.8 88.19c8.5-3.36 18.3-5.29 28.7-5.66 11.4-0.45 22.2 1.19 31.5 4.32" stroke="#000" stroke-linecap="round" stroke-linejoin="round" stroke-width="4.8121"/>
   </g>
   <g transform="translate(-140,-13.91)">
    <path d="m817.4 27.25c-11.6-0.51-22.8 5.37-29.8 14.51-4 5.1-6.8 11.15-8 17.52 2.6 0.48 5.8 1.84 8.6 2.79 17.6 5.66 36.7 6.81 54.9 2.98 3.7-1.31 9.6-1.26 11.6-4.34-0.7-9.15-5.2-17.78-12.2-23.65-6.9-6.11-15.9-9.83-25.1-9.81z"/>
    <path d="m782.6 58.46c10.3 4.54 22.1 7.14 34.5 7.64 13.7 0.6 26.7-1.6 37.9-5.83" stroke="#000" stroke-linecap="round" stroke-linejoin="round" stroke-width="4.812"/>
   </g>
  </g>
 </g>
 <path d="m317 37.39c0.1 0.9 0.1 1.8 0.1 2.6 0 30.8-25 55.8-55.8 55.8-24 0-44.5-15.3-52.4-36.6 1.4 29.5 25.8 53.11 55.7 53.11 30.8 0 55.8-24.91 55.8-55.71 0-6.7-1.2-13.2-3.4-19.2z" opacity=".1"/>
 <path d="m177.6 57.99c0 30.9-25 55.81-55.9 55.81-30.48 0-55.48-24.91-55.48-55.81 0-30.6 25-55.5 55.48-55.5 30.9 0 55.9 24.9 55.9 55.5z" fill="#c1f08b" stroke="#000" stroke-linecap="round" stroke-linejoin="round" stroke-width="4.9998"/>
 <path d="m174.3 37.39c0.1 0.9 0.1 1.8 0.1 2.6 0 30.8-25 55.8-55.8 55.8-23.98 0-44.48-15.3-52.38-36.6 1.4 29.5 25.8 53.11 55.68 53.11 30.8 0 55.8-24.91 55.8-55.71 0-6.7-1.2-13.2-3.4-19.2z" opacity=".1"/>
 <path d="m165.8 50.3c0 20.35-16.5 37.01-36.9 37.01-20.3 0-36.86-16.66-36.86-37.01s16.56-37.01 36.86-37.01c20.4 0 36.9 16.66 36.9 37.01z" fill="#fff" stroke="#000" stroke-linecap="round" stroke-linejoin="round" stroke-width="5.0006"/>
 <g transform="translate(-11.18,-648.8)">
  <animateTransform attributeName="transform" dur="8s" keyTimes="0; 0.1; 0.12; .32; .34; 1" repeatCount="indefinite" type="translate" values="0,0; 0,0; -6,0; -6,0; 0,0; 0,0"/>
  <path d="m157.1 703c0 5.1-4.1 9.1-9.1 9.1-5.1 0-9.2-4-9.2-9.1 0-5 4.1-9.1 9.2-9.1 5 0 9.1 4.1 9.1 9.1z"/>
 </g>
 <g transform="matrix(1.061,0,0,1.061,-737.5,-18.76)" fill="#c1f08b">
  <path d="m821 80.69c-7.3 0.01-14.8-0.03-21.9 2.04-4.6 1.07-9.1 2.31-13.4 4.08 10.3 14.69 31.7 21.19 48 12.86 6.6-3.37 12.4-8.53 16-15.05-3.1-0.88-6.6-1.91-10-2.48-6.1-1.49-12.4-1.5-18.7-1.45z"/>
  <path d="m788.8 88.19c8.5-3.36 18.3-5.29 28.7-5.66 11.4-0.45 22.2 1.19 31.5 4.32" stroke="#000" stroke-linecap="round" stroke-linejoin="round" stroke-width="4.7127"/>
 </g>
 <g transform="matrix(1.087,0,0,1.087,-759.4,-19.87)" fill="#c1f08b">
  <path d="m817.4 27.25c-11.6-0.51-22.8 5.37-29.8 14.51-4 5.1-6.8 11.15-8 17.52 2.6 0.48 5.8 1.84 8.6 2.79 17.6 5.66 36.7 6.81 54.9 2.98 3.7-1.31 9.6-1.26 11.6-4.34-0.7-9.15-5.2-17.78-12.2-23.65-6.9-6.11-15.9-9.83-25.1-9.81z"/>
  <path d="m782.6 58.46c10.3 4.54 22.1 7.14 34.5 7.64 13.7 0.6 26.7-1.6 37.9-5.83" stroke="#000" stroke-linecap="round" stroke-linejoin="round" stroke-width="4.6021"/>
 </g>
</svg>
